<svg xmlns="http://www.w3.org/2000/svg" width="111.345" height="158.595" viewBox="0 0 111.345 158.595">
  <g id="Logo" transform="translate(-116.018 41.704)">
    <circle id="Ellipse_1" data-name="Ellipse 1" cx="47.678" cy="47.678" r="47.678" transform="translate(126.027 -31.755)" fill="#fff"/>
    <path id="Union_1" data-name="Union 1" d="M52.845,156.474C45.069,146.959,18.621,113.445,4.824,81.7A59.04,59.04,0,0,1,0,58.02C0,26.025,24.75,0,55.173,0s55.172,26.025,55.172,58.02a59.106,59.106,0,0,1-4.82,23.68c-13.8,31.748-40.248,65.259-48.025,74.773a2.976,2.976,0,0,1-4.654,0Zm-39.6-98.458c0,20.048,12.792,37.017,30.244,42.351,0-.065,0-.13,0-.2V85.645a.688.688,0,0,0-.376-.612,30.693,30.693,0,0,1-7.888-48.174,28.806,28.806,0,0,1,3.592-3.18,2.622,2.622,0,0,1,2.851-.213,2.931,2.931,0,0,1,1.489,2.58V58.028a.679.679,0,0,0,.3.566l11.6,7.835a.572.572,0,0,0,.759,0l11.6-7.835a.674.674,0,0,0,.3-.566V36.046a2.927,2.927,0,0,1,1.485-2.58,2.634,2.634,0,0,1,2.854.209,30.642,30.642,0,0,1-4.3,51.359.681.681,0,0,0-.379.612v14.561C84.562,94.7,97.1,77.866,97.1,58.016c0-24.312-18.812-44.093-41.932-44.093S13.244,33.7,13.244,58.016Z" transform="translate(116.518 -41.204)" fill="#e95158" stroke="rgba(0,0,0,0)" stroke-width="1"/>
  </g>
</svg>
