<svg xmlns="http://www.w3.org/2000/svg" width="131.801" height="131.787" viewBox="0 0 131.801 131.787">
  <path id="Path_169" data-name="Path 169" d="M280.757,151.45a19.161,19.161,0,0,1,16.426-9.268h30.785a19.153,19.153,0,0,1,17.107,10.53l10.53,20.866h21.74V143.25a19.848,19.848,0,0,1-19.853-19.59H265.4a19.85,19.85,0,0,1-19.854,19.59v91.539a19.863,19.863,0,0,1,19.868,19.854,7.817,7.817,0,0,1-.028.8h92.121a7.939,7.939,0,0,1-.027-.8,19.862,19.862,0,0,1,19.867-19.854V189.145H311.308v45.367H296.059a19.184,19.184,0,0,1-16.385-9.212l-15.76-25.971a19.159,19.159,0,0,1-.042-19.84Zm49.613,46.56a10.2,10.2,0,1,1-10.2,10.2,10.2,10.2,0,0,1,10.2-10.2" transform="translate(-245.545 -123.66)" fill="#ab1f26"/>
</svg>
